<?xml version="1.0" encoding="utf-8"?>
<!-- Generator: Adobe Illustrator 19.2.1, SVG Export Plug-In . SVG Version: 6.00 Build 0)  -->
<svg version="1.1" id="layer" xmlns="http://www.w3.org/2000/svg" xmlns:xlink="http://www.w3.org/1999/xlink" x="0px" y="0px"
	 viewBox="0 0 652 652" style="enable-background:new 0 0 652 652;" xml:space="preserve">
<style type="text/css">
	.st0{fill:#1C355E;}
</style>
<path id="Shape" class="st0" d="M452.8,321.6c0-26.9,18.8-48,46.8-48s46.7,21.1,46.7,48.1s-19.2,48-46.7,48
	C472.1,369.7,452.8,348.7,452.8,321.6z M538.8,321.6c0-23.2-16.1-41.2-39.3-41.2c-23.2,0-39.4,18-39.4,41.2s16.2,41.2,39.4,41.2
	S538.8,344.5,538.8,321.6z"/>
<path id="Shape_1_" class="st0" d="M20.6,350.7l10.1-7.4l2.2,0.5c5.1,9.1,10.9,12.8,19.2,12.8c8.7,0,14.9-5.8,14.9-13
	c0-7.2-3.6-11.6-19.2-18.4c-17.8-7.6-24-15.7-24-27.9c0-13.4,10.7-23.9,28-23.9c12.7,0,22,5.6,27.5,15l-9.8,7.4l-2.2-0.5
	c-3.6-5.7-8.2-9-15.3-9c-8.4,0-13.1,4.6-13.1,10.8c0,6.2,3,9.2,18.7,16.5c19.2,8.9,24.6,16.9,24.6,29.1c0,15-12.4,26.8-29.7,26.8
	C38.4,369.6,28,364,20.6,350.7z"/>
<polygon id="Shape_2_" class="st0" points="83.3,275.9 97.8,275.9 97.8,314.3 136.2,314.3 136.2,275.9 150.7,275.9 150.7,367.2 
	136.2,367.2 136.2,327.8 97.8,327.8 97.8,367.2 83.3,367.2 "/>
<path id="Shape_3_" class="st0" d="M152.1,321.6c0-27.3,19.7-48.1,47.6-48.1s47.4,20.8,47.4,48.1s-19.9,48.1-47.4,48.1
	S152.1,348.8,152.1,321.6z M231.8,321.6c0-19.5-13.3-34.2-32.2-34.2c-18.9,0-32.3,14.7-32.3,34.2c0,19.5,13.5,34,32.3,34
	S231.8,340.8,231.8,321.6L231.8,321.6z"/>
<polygon id="Shape_4_" class="st0" points="294.2,275.9 302.1,289.1 262.8,289.1 262.8,314.1 298.9,314.1 298.9,327 262.8,327 
	262.8,354.1 302.1,354.1 300.7,367.2 248.3,367.2 248.3,275.9 "/>
<polygon id="Shape_5_" class="st0" points="531.7,275.9 539.7,275.9 577.2,331.5 577.4,331.5 620.6,273.2 620.6,367.3 613.8,367.3 
	613.6,294.5 613.4,294.5 578,342.5 576.4,342.5 "/>
<path id="Shape_6_" class="st0" d="M314.7,347.5l2,0.2c3.6,5.7,10,9.1,16.8,8.9c8.7,0,14.9-5.8,14.9-13s-3.6-11.6-19.2-18.4
	c-17.8-7.6-24-15.7-24-27.9c0-13.4,10.7-23.8,27.9-23.8c12.8,0,22,5.5,27.5,15l-9.9,7.5l-2.2-0.5c-3.6-5.7-8.2-9-15.4-9
	c-8.3,0-13.1,4.6-13.1,10.8c0,6.2,3,9.2,18.7,16.5c19.2,8.9,24.6,16.9,24.6,29.2c0,15-12.4,26.8-29.7,26.8
	c-12.2,0-21.4-4.1-28.5-13.7C305.1,355.7,314.7,347.5,314.7,347.5z"/>
<path id="Shape_7_" class="st0" d="M450,341.7l-1.5,0.3c-7.5,14.1-18.6,20.9-34.3,20.9c-21.7,0-38.4-17.7-38.4-41.2
	s16.3-41.2,38.2-41.2c15.4,0,26.2,7.1,33.8,21.1l1.5,0.2l4.7-3.5c-8.9-16.6-22.1-24.8-40.1-24.8c-26.1,0-45.5,20.5-45.5,48.1
	c-0.1,9.3,2.3,18.5,7,26.6c6,1,10.4,6,10.6,12.1c8,6.2,17.9,9.5,28,9.4c18.1,0,31-8,40.5-24.5L450,341.7z"/>
<path id="Shape_8_" class="st0" d="M382.1,360.7c0,3.5-2.1,6.7-5.3,8s-7,0.6-9.4-1.9c-2.5-2.5-3.2-6.2-1.9-9.4
	c1.3-3.2,4.5-5.3,8-5.3C378.3,352.1,382.1,356,382.1,360.7z"/>
</svg>
